<?xml version="1.0" encoding="UTF-8" standalone="no"?>
<svg
   xmlns:dc="http://purl.org/dc/elements/1.1/"
   xmlns:cc="http://creativecommons.org/ns#"
   xmlns:rdf="http://www.w3.org/1999/02/22-rdf-syntax-ns#"
   xmlns:svg="http://www.w3.org/2000/svg"
   xmlns="http://www.w3.org/2000/svg"
   xmlns:sodipodi="http://sodipodi.sourceforge.net/DTD/sodipodi-0.dtd"
   xmlns:inkscape="http://www.inkscape.org/namespaces/inkscape"
   aria-labelledby="simpleicons-github-icon"
   role="img"
   viewBox="0 0 24 24"
   version="1.1"
   id="svg5"
   sodipodi:docname="github.svg"
   inkscape:version="0.92.2 2405546, 2018-03-11">
  <metadata
     id="metadata11">
    <rdf:RDF>
      <cc:Work
         rdf:about="">
        <dc:format>image/svg+xml</dc:format>
        <dc:type
           rdf:resource="http://purl.org/dc/dcmitype/StillImage" />
        <dc:title></dc:title>
      </cc:Work>
    </rdf:RDF>
  </metadata>
  <defs
     id="defs9" />
  <sodipodi:namedview
     pagecolor="#ffffff"
     bordercolor="#666666"
     borderopacity="1"
     objecttolerance="10"
     gridtolerance="10"
     guidetolerance="10"
     inkscape:pageopacity="0"
     inkscape:pageshadow="2"
     inkscape:window-width="1918"
     inkscape:window-height="1058"
     id="namedview7"
     showgrid="false"
     inkscape:zoom="9.8333333"
     inkscape:cx="-38.440678"
     inkscape:cy="12"
     inkscape:window-x="0"
     inkscape:window-y="20"
     inkscape:window-maximized="0"
     inkscape:current-layer="svg5" />
  <path
     d="m 12,1.4672867 c -5.967,0 -10.8,4.8357 -10.8,10.8000003 0,4.7727 3.0942,8.82 7.3845,10.2465 0.54,0.1017 0.738,-0.2322 0.738,-0.5193 0,-0.2565 -0.009,-0.936 -0.0135,-1.836 -3.0042,0.6516 -3.6378,-1.449 -3.6378,-1.449 -0.4914,-1.2465 -1.2015,-1.5795 -1.2015,-1.5795 -0.9783,-0.6696 0.0756,-0.6561 0.0756,-0.6561 1.0845,0.0756 1.6542,1.1124 1.6542,1.1124 0.963,1.6515 2.5281,1.1745 3.1455,0.8982 0.0972,-0.6984 0.3753,-1.1745 0.684,-1.4445 -2.3985,-0.27 -4.9194,-1.1988 -4.9194,-5.337 0,-1.179 0.4185,-2.1420003 1.1115,-2.8980003 -0.1215,-0.2727 -0.486,-1.3707 0.0945,-2.8584 0,0 0.9045,-0.2898 2.97,1.107 0.864,-0.2403 1.782,-0.3591 2.7,-0.3645 0.918,0.0054 1.836,0.1242 2.7,0.3645 2.052,-1.3968 2.9565,-1.107 2.9565,-1.107 0.5805,1.4877 0.216,2.5857 0.108,2.8584 0.6885,0.756 1.107,1.7190003 1.107,2.8980003 0,4.149 -2.5245,5.0625 -4.9275,5.328 0.378,0.324 0.729,0.9864 0.729,1.998 0,1.4454 -0.0135,2.6064 -0.0135,2.9574 0,0.2835 0.189,0.621 0.7425,0.513 4.3209,-1.4166 7.4124,-5.4666 7.4124,-10.2321 C 22.8,6.3029867 17.9643,1.4672867 12,1.4672867"
     id="path3"
     inkscape:connector-curvature="0"
     style="stroke-width:0.89999998" />
</svg>
